<svg xmlns="http://www.w3.org/2000/svg" width="74.667" height="24" viewBox="0 0 74.667 24">
  <path id="Union_3" data-name="Union 3" d="M0,24V4.737H1.569V3.158H3.137V4.737h16V24Zm17.569-1.579V6.316h-16V22.421Zm1.569,0V20.842h1.568v1.579Zm1.568-1.579V19.263h1.569v1.579Zm48-1.263V18H73.1v1.579Zm-11.922,0V18H64v1.579Zm-8.471,0V18H46.746V16.421h1.568V18h4.079v1.579Zm-10.353,0V18H42.04v1.579Zm-5.961,0V10.737H30.745V9.158h2.824V19.579Zm-2.824,0V10.737H27.922v8.842H26.353V9.158h2.824v1.579h1.569v8.842Zm-21.961,0V18h4.392v1.579Zm-1.569,0V9.158H7.216V19.579Zm16.628-.316V3.158H20.706V1.579h-16V0H23.843V19.263ZM73.1,18V16.421h1.568V18Zm-5.961,0V10.737h1.568V18Zm-7.53,0V10.737H56.785V9.158H64v1.579H61.177V18Zm-7.216,0V15.158H48.314V13.579h4.079v1.579h1.568V18ZM42.04,18V9.158h1.568V18Zm-5.647,0V9.158h1.568V18ZM11.608,18V10.737H7.216V9.158h4.392v1.579h1.569V18Zm35.138-4.421V10.737h1.568v2.842ZM73.1,12.316V10.737h1.568v1.579Zm-20.706,0V10.737h1.568v1.579Zm16.314-1.579V9.158H73.1v1.579Zm-20.392,0V9.158h4.079v1.579Zm-29.177-6V3.158h1.568V4.737Zm-16-1.579V1.579H4.706V3.158Z" fill="#fff"/>
</svg>
